<mxfile host="app.diagrams.net" modified="2023-07-12T04:58:49.013Z" agent="Mozilla/5.0 (X11; Linux x86_64) AppleWebKit/537.36 (KHTML, like Gecko) Chrome/114.0.0.0 Safari/537.36 Edg/114.0.1823.67" version="21.6.2" etag="0Vpip0YEKlFUggLtkN2s" type="github">
  <diagram name="Page-1" id="glLrEs6ZQ2U-fqL2JqlM">
    <mxGraphModel>
      <root>
        <mxCell id="0" />
        <mxCell id="1" parent="0" />
      </root>
    </mxGraphModel>
  </diagram>
</mxfile>
